<?xml version="1.0" encoding="utf-8"?>
<!-- Generator: Adobe Illustrator 21.0.2, SVG Export Plug-In . SVG Version: 6.00 Build 0)  -->
<svg version="1.1" id="Layer_1" xmlns="http://www.w3.org/2000/svg" xmlns:xlink="http://www.w3.org/1999/xlink" x="0px" y="0px"
	 viewBox="0 0 40 40" style="enable-background:new 0 0 40 40;" xml:space="preserve">
<style type="text/css">
	.st0{clip-path:url(#SVGID_2_);}
	.st1{clip-path:url(#SVGID_4_);fill:#3A3335;}
	.st2{clip-path:url(#SVGID_6_);}
	.st3{clip-path:url(#SVGID_8_);fill:#3A3335;}
	.st4{clip-path:url(#SVGID_10_);}
	.st5{clip-path:url(#SVGID_12_);fill:#3A3335;}
</style>
<g>
	<g>
		<defs>
			<path id="SVGID_1_" d="M-64.5,35.5h-31.1V4.5h31.1V35.5z M-96.7,3.3v33.3h33.3V3.3H-96.7z"/>
		</defs>
		<clipPath id="SVGID_2_">
			<use xlink:href="#SVGID_1_"  style="overflow:visible;"/>
		</clipPath>
		<g class="st0">
			<defs>
				<rect id="SVGID_3_" x="-1545.3" y="-18.9" width="2284.8" height="2619.6"/>
			</defs>
			<clipPath id="SVGID_4_">
				<use xlink:href="#SVGID_3_"  style="overflow:visible;"/>
			</clipPath>
		</g>
	</g>
	<g>
		<defs>
			<polygon id="SVGID_5_" points="-80.6,31.7 -79.4,31.7 -79.4,20.6 -68.3,20.6 -68.3,19.4 -79.4,19.4 -79.4,8.3 -80.6,8.3 
				-80.6,19.4 -91.7,19.4 -91.7,20.6 -80.6,20.6 			"/>
		</defs>
		<clipPath id="SVGID_6_">
			<use xlink:href="#SVGID_5_"  style="overflow:visible;"/>
		</clipPath>
		<g class="st2">
			<defs>
				<rect id="SVGID_7_" x="-1545.3" y="-18.9" width="2284.8" height="2619.6"/>
			</defs>
			<clipPath id="SVGID_8_">
				<use xlink:href="#SVGID_7_"  style="overflow:visible;"/>
			</clipPath>
		</g>
	</g>
</g>
<g>
	<g>
		<defs>
			<path id="SVGID_9_" d="M29.8,34.5c-3.5,0-6.4-2.8-6.5-6.2c0,0,0,0,0,0l0-0.1c0-0.1,0-0.1,0-0.2c0-3.6,2.9-6.5,6.5-6.5
				c0.3,0,0.5,0,0.8,0.1c0.1,0,0.1,0,0.2,0c0.2,0,0.4,0.1,0.6,0.1c0.1,0,0.1,0,0.2,0c0.5,0.1,1,0.4,1.5,0.6c0,0,0.1,0,0.1,0.1
				c0.2,0.1,0.4,0.2,0.6,0.4c0,0,0.1,0.1,0.1,0.1c0.4,0.3,0.8,0.7,1.1,1.1c0,0,0.1,0.1,0.1,0.1c0.1,0.2,0.3,0.4,0.4,0.6
				c0.6,1,0.9,2.1,0.9,3.2C36.3,31.6,33.3,34.5,29.8,34.5z M23.3,23.7v-2.2v-8.5V9.6c0-1.1,0.5-2.2,1.3-3c0.8-0.7,1.8-1.2,2.9-1.2
				c0.1,0,0.1,0,0.2,0c1.8,0.1,3.4,1.5,3.9,3.4L34.7,22c-0.3-0.2-0.6-0.5-0.9-0.6c-0.1,0-0.1-0.1-0.2-0.1c-0.1-0.1-0.3-0.1-0.4-0.2
				c-0.1,0-0.2-0.1-0.2-0.1c-0.1-0.1-0.3-0.1-0.4-0.2c-0.1,0-0.2-0.1-0.3-0.1c-0.1,0-0.3-0.1-0.4-0.1c-0.1,0-0.2-0.1-0.3-0.1
				c-0.1,0-0.2-0.1-0.4-0.1c-0.1,0-0.3,0-0.4-0.1c-0.1,0-0.2,0-0.3,0c-0.2,0-0.5,0-0.7,0c-0.3,0-0.6,0-0.9,0.1c-0.1,0-0.2,0-0.3,0
				c-0.2,0-0.4,0.1-0.6,0.1c-0.1,0-0.2,0-0.3,0.1c-0.2,0.1-0.4,0.1-0.6,0.2c-0.1,0-0.2,0.1-0.2,0.1c-0.3,0.1-0.5,0.2-0.8,0.4
				c0,0-0.1,0-0.1,0.1c-0.2,0.1-0.4,0.3-0.6,0.4c-0.1,0.1-0.1,0.1-0.2,0.2c-0.2,0.1-0.3,0.2-0.5,0.4c-0.1,0.1-0.1,0.1-0.2,0.2
				c-0.2,0.1-0.3,0.3-0.4,0.5c-0.1,0.1-0.1,0.1-0.2,0.2C23.6,23.2,23.4,23.4,23.3,23.7C23.3,23.7,23.3,23.7,23.3,23.7z M18,20.9
				v-7.2H22v7.2H18z M16.2,23c-0.1-0.1-0.1-0.1-0.2-0.2c-0.1-0.2-0.3-0.3-0.4-0.5c-0.1-0.1-0.1-0.1-0.2-0.2
				c-0.1-0.1-0.3-0.3-0.5-0.4c-0.1-0.1-0.1-0.1-0.2-0.2c-0.2-0.1-0.4-0.3-0.6-0.4c0,0-0.1,0-0.1-0.1c-0.3-0.1-0.5-0.3-0.8-0.4
				c-0.1,0-0.2-0.1-0.2-0.1c-0.2-0.1-0.4-0.1-0.6-0.2c-0.1,0-0.2-0.1-0.3-0.1c-0.2,0-0.4-0.1-0.6-0.1c-0.1,0-0.2,0-0.3,0
				c-0.3,0-0.6-0.1-0.9-0.1c-0.2,0-0.5,0-0.7,0c-0.1,0-0.2,0-0.3,0c-0.1,0-0.3,0-0.4,0.1c-0.1,0-0.2,0.1-0.4,0.1
				c-0.1,0-0.2,0.1-0.3,0.1c-0.1,0-0.3,0.1-0.4,0.1c-0.1,0-0.2,0.1-0.3,0.1c-0.1,0.1-0.3,0.1-0.4,0.2C7,20.9,6.9,21,6.8,21
				c-0.1,0.1-0.3,0.1-0.4,0.2c-0.1,0-0.1,0.1-0.2,0.1c-0.1,0.1-0.3,0.2-0.4,0.2c0,0-0.1,0-0.1,0.1c-0.1,0.1-0.3,0.2-0.4,0.3L8.5,8.8
				c0.5-1.9,2.1-3.3,3.9-3.4c1.2-0.1,2.2,0.4,3.1,1.1c0.8,0.8,1.3,1.9,1.3,3v3.4v8.5v2.2c0,0,0,0,0,0C16.6,23.4,16.4,23.2,16.2,23z
				 M10.2,34.5c-3.6,0-6.5-2.9-6.5-6.5c0-1.2,0.3-2.3,0.9-3.3c0.1-0.2,0.3-0.4,0.4-0.6c0,0,0.1-0.1,0.1-0.1c0.3-0.4,0.7-0.8,1.1-1.1
				c0,0,0.1-0.1,0.1-0.1c0.2-0.1,0.4-0.3,0.6-0.4c0,0,0.1,0,0.1-0.1c0.5-0.3,1-0.5,1.5-0.6c0.1,0,0.1,0,0.2,0
				c0.2-0.1,0.4-0.1,0.6-0.1c0.1,0,0.1,0,0.2,0c0.3,0,0.5-0.1,0.8-0.1c3.6,0,6.5,2.9,6.5,6.5c0,0.1,0,0.1,0,0.2l0,0.1c0,0,0,0,0,0
				C16.6,31.7,13.7,34.5,10.2,34.5z M36.6,24.3L32.8,8.5c-0.6-2.4-2.7-4.2-5.1-4.3c-1.5-0.1-2.9,0.5-4,1.5c-1.1,1-1.7,2.4-1.7,3.9
				v2.8H18V9.6c0-1.5-0.6-2.9-1.7-3.9c-1.1-1-2.5-1.6-4-1.5C9.9,4.3,7.8,6.1,7.2,8.5L3.4,24.3c-0.6,1.1-1,2.4-1,3.8
				c0,4.3,3.5,7.8,7.8,7.8c4.2,0,7.6-3.3,7.8-7.4c0,0,0-0.1,0-0.1V28v-5.9H22V28v0.3c0,0,0,0.1,0,0.1c0.2,4.1,3.6,7.4,7.8,7.4
				c4.3,0,7.8-3.5,7.8-7.8C37.6,26.7,37.2,25.4,36.6,24.3z"/>
		</defs>
		<clipPath id="SVGID_10_">
			<use xlink:href="#SVGID_9_"  style="overflow:visible;"/>
		</clipPath>
		<g class="st4">
			<defs>
				<rect id="SVGID_11_" x="-1551.1" y="-17.2" width="2199.6" height="2521.9"/>
			</defs>
			<clipPath id="SVGID_12_">
				<use xlink:href="#SVGID_11_"  style="overflow:visible;"/>
			</clipPath>
			<rect x="-5.2" y="-3.5" class="st5" width="50.4" height="46.9"/>
		</g>
	</g>
</g>
</svg>
