<svg id="Layer_1" data-name="Layer 1" xmlns="http://www.w3.org/2000/svg" viewBox="0 0 150 40"><defs><style>.cls-1{fill:#53146c;}.cls-2{fill:#fdbc2b;}.cls-3{fill:#fc551e;}.cls-4{fill:#39bdeb;}.cls-5{fill:#43cdac;}.cls-6{fill:#3a3335;}</style></defs><title>logo</title><path class="cls-1" d="M6,5.7A2.49,2.49,0,0,0,3.53,8.19V31.81A2.49,2.49,0,0,0,6,34.3H29.65a2.49,2.49,0,0,0,2.48-2.48V8.19A2.49,2.49,0,0,0,29.65,5.7Z"/><path class="cls-2" d="M28.14,26.83h0a.64.64,0,0,1-.45-.19l-2.41-2.41-2.41,2.41a.66.66,0,0,1-.9,0L9.5,14.19l-2.6,2.6a.64.64,0,0,1-.9-.9L9,12.83a.64.64,0,0,1,.45-.19h0a.64.64,0,0,1,.45.19L22.41,25.29l2.41-2.41a.66.66,0,0,1,.9,0l2.41,2.41,3.75-3.75a.64.64,0,0,1,.9.9l-4.2,4.2A.64.64,0,0,1,28.14,26.83Z"/><path class="cls-3" d="M17.29,26.32a.64.64,0,0,1-.45-.19L9.5,18.79,6.9,21.4a.64.64,0,1,1-.9-.9L9,17.44a.66.66,0,0,1,.9,0l7.79,7.79a.64.64,0,0,1-.45,1.09Z"/><path class="cls-4" d="M12.94,26.58a.64.64,0,0,1-.45-.19l-3-3L6.9,26a.64.64,0,0,1-.9-.9L9,22a.64.64,0,0,1,.45-.19h0A.64.64,0,0,1,10,22l3.44,3.44a.64.64,0,0,1-.45,1.09Z"/><path class="cls-5" d="M29.38,35.26H6.28a3.71,3.71,0,0,1-3.71-3.71V8.45A3.71,3.71,0,0,1,6.28,4.74h23.1a3.71,3.71,0,0,1,3.71,3.71v23.1A3.71,3.71,0,0,1,29.38,35.26ZM6.28,6A2.43,2.43,0,0,0,3.85,8.45v23.1A2.43,2.43,0,0,0,6.28,34h23.1a2.43,2.43,0,0,0,2.43-2.43V8.45A2.43,2.43,0,0,0,29.38,6Z"/><path class="cls-6" d="M56.11,13.09a1,1,0,0,1,.33.75,1.09,1.09,0,0,1-.06.35l-4.21,12.3a.72.72,0,0,1-.34.44,1.2,1.2,0,0,1-.54.17,1,1,0,0,1-.55-.16.94.94,0,0,1-.39-.47L47.19,19,44,26.47a.94.94,0,0,1-.39.47,1,1,0,0,1-1.1,0,.78.78,0,0,1-.33-.43L38,14.19a1.09,1.09,0,0,1-.06-.35,1,1,0,0,1,.34-.74,1.08,1.08,0,0,1,.72-.29,1.06,1.06,0,0,1,.59.17.8.8,0,0,1,.35.46l3.43,10.18,2.95-7.23a1,1,0,0,1,.37-.45,1,1,0,0,1,1.1,0,1,1,0,0,1,.37.45L51,23.62l3.41-10.18a.76.76,0,0,1,.35-.47,1.14,1.14,0,0,1,.61-.16A1.06,1.06,0,0,1,56.11,13.09Z"/><path class="cls-6" d="M66.66,16.58a1,1,0,0,1,.27.72v8.82a1,1,0,0,1-.27.69.93.93,0,0,1-.7.28.92.92,0,0,1-.69-.27,1,1,0,0,1-.26-.7v-.53a4.35,4.35,0,0,1-1.44,1.21,4.06,4.06,0,0,1-2,.5,4.6,4.6,0,0,1-2.51-.71,4.88,4.88,0,0,1-1.77-2,6.69,6.69,0,0,1,0-5.71,4.91,4.91,0,0,1,1.76-2,4.49,4.49,0,0,1,2.46-.71,4.54,4.54,0,0,1,2,.45A4.15,4.15,0,0,1,65,17.79V17.3a1,1,0,0,1,.26-.71A.9.9,0,0,1,66,16.3,1,1,0,0,1,66.66,16.58ZM63.51,25a3.3,3.3,0,0,0,1.16-1.34,4.35,4.35,0,0,0,.42-1.93,4.3,4.3,0,0,0-.42-1.91,3.38,3.38,0,0,0-1.16-1.35,3,3,0,0,0-1.7-.5,3,3,0,0,0-1.7.49A3.3,3.3,0,0,0,59,19.82a4.69,4.69,0,0,0,0,3.86A3.29,3.29,0,0,0,60.12,25a3.19,3.19,0,0,0,3.39,0Z"/><path class="cls-6" d="M71.23,26.81a.94.94,0,0,1-.69.28.91.91,0,0,1-.68-.28,1,1,0,0,1-.27-.69V13a1,1,0,0,1,1-1,.91.91,0,0,1,.68.28,1,1,0,0,1,.27.69V26.12A.94.94,0,0,1,71.23,26.81Z"/><path class="cls-6" d="M75.9,26.81a.94.94,0,0,1-.69.28.91.91,0,0,1-.68-.28,1,1,0,0,1-.27-.69V13a1,1,0,0,1,1-1,.91.91,0,0,1,.68.28,1,1,0,0,1,.27.69V26.12A.94.94,0,0,1,75.9,26.81Z"/><path class="cls-6" d="M88.85,13.12a.88.88,0,0,1,.27.68.85.85,0,0,1-.27.67,1,1,0,0,1-.7.24H84.53v11.4a.93.93,0,0,1-.29.69,1.11,1.11,0,0,1-1.48,0,.92.92,0,0,1-.29-.69V14.72h-3.6a1,1,0,0,1-.7-.25.88.88,0,0,1-.27-.68.86.86,0,0,1,.27-.66,1,1,0,0,1,.7-.25h9.29A1,1,0,0,1,88.85,13.12Z"/><path class="cls-6" d="M98.37,16.58a1,1,0,0,1,.27.72v8.82a1,1,0,0,1-.27.69.93.93,0,0,1-.7.28.92.92,0,0,1-.69-.27,1,1,0,0,1-.26-.7v-.53a4.35,4.35,0,0,1-1.44,1.21,4.06,4.06,0,0,1-2,.5,4.6,4.6,0,0,1-2.51-.71,4.88,4.88,0,0,1-1.77-2,6.69,6.69,0,0,1,0-5.71,4.91,4.91,0,0,1,1.76-2,4.49,4.49,0,0,1,2.46-.71,4.54,4.54,0,0,1,2,.45,4.15,4.15,0,0,1,1.47,1.14V17.3a1,1,0,0,1,.26-.71.9.9,0,0,1,.69-.28A1,1,0,0,1,98.37,16.58ZM95.22,25a3.3,3.3,0,0,0,1.16-1.34,4.35,4.35,0,0,0,.42-1.93,4.3,4.3,0,0,0-.42-1.91,3.38,3.38,0,0,0-1.16-1.35,3,3,0,0,0-1.7-.5,3,3,0,0,0-1.7.49,3.3,3.3,0,0,0-1.16,1.34,4.69,4.69,0,0,0,0,3.86A3.29,3.29,0,0,0,91.83,25a3.19,3.19,0,0,0,3.39,0Z"/><path class="cls-6" d="M110.88,16.58a1,1,0,0,1,.27.72v8.94a5.06,5.06,0,0,1-.7,2.75,4.22,4.22,0,0,1-1.9,1.64,6.64,6.64,0,0,1-2.7.53,7.65,7.65,0,0,1-1.9-.28,3.38,3.38,0,0,1-1.39-.59q-.63-.32-.63-.81a.93.93,0,0,1,.08-.33.77.77,0,0,1,.75-.51,1.54,1.54,0,0,1,.57.12,7.65,7.65,0,0,0,2.54.63,3.59,3.59,0,0,0,2.49-.78,2.75,2.75,0,0,0,.86-2.14v-1.1a3.54,3.54,0,0,1-1.43,1.36,4.25,4.25,0,0,1-2.12.57,4.8,4.8,0,0,1-2.56-.71,4.94,4.94,0,0,1-1.82-2,6.5,6.5,0,0,1,0-5.71,5,5,0,0,1,1.81-2,4.71,4.71,0,0,1,2.53-.71,4.63,4.63,0,0,1,3.6,1.75V17.3a1,1,0,0,1,.26-.71.9.9,0,0,1,.69-.28A1,1,0,0,1,110.88,16.58ZM107.66,25a3.28,3.28,0,0,0,1.21-1.34,4.24,4.24,0,0,0,.44-1.94,4.18,4.18,0,0,0-.44-1.93,3.37,3.37,0,0,0-1.21-1.34,3.24,3.24,0,0,0-1.77-.49,3.2,3.2,0,0,0-1.75.49,3.35,3.35,0,0,0-1.21,1.35,4.44,4.44,0,0,0,0,3.84A3.34,3.34,0,0,0,104.14,25a3.2,3.2,0,0,0,1.75.49A3.29,3.29,0,0,0,107.66,25Z"/><path class="cls-6" d="M123.41,16.58a1,1,0,0,1,.27.72v8.94A5.06,5.06,0,0,1,123,29a4.22,4.22,0,0,1-1.9,1.64,6.64,6.64,0,0,1-2.7.53,7.65,7.65,0,0,1-1.9-.28,3.38,3.38,0,0,1-1.39-.59q-.63-.32-.63-.81a.93.93,0,0,1,.08-.33.77.77,0,0,1,.75-.51,1.54,1.54,0,0,1,.57.12,7.65,7.65,0,0,0,2.54.63,3.59,3.59,0,0,0,2.49-.78,2.75,2.75,0,0,0,.86-2.14v-1.1a3.54,3.54,0,0,1-1.43,1.36,4.25,4.25,0,0,1-2.12.57,4.8,4.8,0,0,1-2.56-.71,4.94,4.94,0,0,1-1.82-2,6.5,6.5,0,0,1,0-5.71,5,5,0,0,1,1.81-2,4.71,4.71,0,0,1,2.53-.71,4.63,4.63,0,0,1,3.6,1.75V17.3a1,1,0,0,1,.26-.71.9.9,0,0,1,.69-.28A1,1,0,0,1,123.41,16.58ZM120.19,25a3.28,3.28,0,0,0,1.21-1.34,4.24,4.24,0,0,0,.44-1.94,4.18,4.18,0,0,0-.44-1.93,3.37,3.37,0,0,0-1.21-1.34,3.24,3.24,0,0,0-1.77-.49,3.2,3.2,0,0,0-1.75.49,3.35,3.35,0,0,0-1.21,1.35,4.44,4.44,0,0,0,0,3.84A3.34,3.34,0,0,0,116.67,25a3.2,3.2,0,0,0,1.75.49A3.29,3.29,0,0,0,120.19,25Z"/><path class="cls-6" d="M135.37,22a1,1,0,0,1-.67.25h-7.15a3.53,3.53,0,0,0,1.13,2.38,3.45,3.45,0,0,0,2.41.89,3.77,3.77,0,0,0,1.59-.28,4,4,0,0,0,1.08-.73,1.15,1.15,0,0,1,.59-.18.77.77,0,0,1,.58.24.8.8,0,0,1,.23.57,1,1,0,0,1-.41.77,4.78,4.78,0,0,1-1.56,1,5.14,5.14,0,0,1-2,.41,5.89,5.89,0,0,1-2.9-.69,4.82,4.82,0,0,1-1.93-1.93,5.73,5.73,0,0,1-.68-2.8,6.18,6.18,0,0,1,.7-3,5.08,5.08,0,0,1,1.85-2,4.76,4.76,0,0,1,4.91,0A5.1,5.1,0,0,1,135,18.72a5.28,5.28,0,0,1,.71,2.64A.87.87,0,0,1,135.37,22Zm-6.65-3.35a3.15,3.15,0,0,0-1.1,2h6v-.16a2.48,2.48,0,0,0-1-1.77,3.06,3.06,0,0,0-2-.69A3.14,3.14,0,0,0,128.73,18.63Z"/><path class="cls-6" d="M147,12.33a1,1,0,0,1,.27.7V26.12a1,1,0,0,1-.27.69.93.93,0,0,1-.7.28.92.92,0,0,1-.69-.27,1,1,0,0,1-.26-.7v-.57a4.11,4.11,0,0,1-1.43,1.24,4.05,4.05,0,0,1-2,.51,4.55,4.55,0,0,1-2.5-.71,5,5,0,0,1-1.77-2,6.17,6.17,0,0,1-.65-2.86,6.25,6.25,0,0,1,.64-2.86,4.91,4.91,0,0,1,1.76-2,4.63,4.63,0,0,1,4.45-.26,4.25,4.25,0,0,1,1.48,1.16V13a1,1,0,0,1,.26-.7.92.92,0,0,1,.69-.27A1,1,0,0,1,147,12.33ZM143.86,25A3.3,3.3,0,0,0,145,23.68a4.66,4.66,0,0,0,0-3.85,3.29,3.29,0,0,0-1.16-1.35,3.2,3.2,0,0,0-3.39,0,3.28,3.28,0,0,0-1.16,1.35,4.66,4.66,0,0,0,0,3.85A3.29,3.29,0,0,0,140.47,25a3.19,3.19,0,0,0,3.39,0Z"/></svg>