<?xml version="1.0" encoding="utf-8"?>
<!-- Generator: Adobe Illustrator 21.0.2, SVG Export Plug-In . SVG Version: 6.00 Build 0)  -->
<svg version="1.1" id="Layer_1" xmlns="http://www.w3.org/2000/svg" xmlns:xlink="http://www.w3.org/1999/xlink" x="0px" y="0px"
	 viewBox="0 0 150 40" style="enable-background:new 0 0 150 40;" xml:space="preserve">
<style type="text/css">
	.st0{fill:#53146C;}
	.st1{fill:#FDBC2B;}
	.st2{fill:#FC551E;}
	.st3{fill:#39BDEB;}
	.st4{fill:#43CDAC;}
	.st5{fill:#EDF2F4;}
</style>
<path class="st0" d="M6,5.7c-1.4,0-2.5,1.1-2.5,2.5v23.6c0,1.4,1.1,2.5,2.5,2.5h23.6c1.4,0,2.5-1.1,2.5-2.5V8.2
	c0-1.4-1.1-2.5-2.5-2.5H6z"/>
<path class="st1" d="M28.1,26.8L28.1,26.8c-0.2,0-0.3-0.1-0.5-0.2l-2.4-2.4l-2.4,2.4c-0.3,0.2-0.6,0.2-0.9,0L9.5,14.2l-2.6,2.6
	C6.6,17,6.2,17,6,16.7c-0.2-0.2-0.2-0.6,0-0.8l3-3.1c0.1-0.1,0.3-0.2,0.4-0.2l0,0c0.2,0,0.3,0.1,0.4,0.2l12.5,12.5l2.4-2.4
	c0.3-0.2,0.6-0.2,0.9,0l2.4,2.4l3.8-3.8c0.3-0.2,0.7-0.2,0.9,0.1c0.2,0.2,0.2,0.6,0,0.8l-4.2,4.2C28.5,26.8,28.3,26.8,28.1,26.8z"/>
<path class="st2" d="M17.3,26.3c-0.2,0-0.3-0.1-0.5-0.2l-7.3-7.3l-2.6,2.6c-0.2,0.3-0.6,0.3-0.9,0.1c-0.3-0.2-0.3-0.6-0.1-0.9
	c0,0,0.1-0.1,0.1-0.1l3-3.1c0.3-0.2,0.6-0.2,0.9,0l7.8,7.8c0.2,0.3,0.2,0.7,0,0.9C17.6,26.3,17.4,26.3,17.3,26.3L17.3,26.3z"/>
<path class="st3" d="M12.9,26.6c-0.2,0-0.3-0.1-0.4-0.2l-3-3L6.9,26c-0.3,0.2-0.7,0.2-0.9-0.1c-0.2-0.2-0.2-0.6,0-0.8L9,22
	c0.1-0.1,0.3-0.2,0.4-0.2l0,0c0.2,0,0.4,0,0.6,0.2l3.4,3.4c0.2,0.3,0.2,0.7,0,0.9C13.3,26.5,13.2,26.5,12.9,26.6L12.9,26.6z"/>
<path class="st4" d="M29.4,35.3H6.3c-2,0-3.7-1.7-3.7-3.7V8.4c0-2,1.7-3.7,3.7-3.7l0,0h23.1c2,0,3.7,1.7,3.7,3.7v23.1
	C33.1,33.6,31.4,35.3,29.4,35.3L29.4,35.3z M6.3,6C4.9,6,3.8,7.1,3.8,8.4c0,0,0,0,0,0v23.1c0,1.3,1.1,2.4,2.4,2.4c0,0,0,0,0,0h23.1
	c1.3,0,2.4-1.1,2.4-2.4l0,0V8.4c0-1.3-1.1-2.4-2.4-2.4c0,0,0,0,0,0H6.3z"/>
<path class="st5" d="M56.1,13.1c0.2,0.2,0.3,0.5,0.3,0.8c0,0.1,0,0.2-0.1,0.4l-4.2,12.3c0,0.2-0.2,0.3-0.3,0.4
	c-0.2,0.1-0.3,0.2-0.5,0.2c-0.2,0-0.4-0.1-0.5-0.2c-0.2-0.1-0.3-0.3-0.4-0.5L47.2,19L44,26.5c-0.1,0.2-0.2,0.4-0.4,0.5
	c-0.3,0.2-0.8,0.2-1.1,0c-0.2-0.1-0.3-0.3-0.3-0.4L38,14.2c0-0.1-0.1-0.2-0.1-0.4c0-0.3,0.1-0.6,0.3-0.7c0.2-0.2,0.5-0.3,0.7-0.3
	c0.2,0,0.4,0.1,0.6,0.2c0.2,0.1,0.3,0.3,0.3,0.5l3.4,10.2l3-7.2c0.1-0.2,0.2-0.3,0.4-0.4c0.3-0.2,0.8-0.2,1.1,0
	c0.2,0.1,0.3,0.3,0.4,0.4l2.8,7.2l3.4-10.2c0-0.2,0.2-0.4,0.3-0.5c0.2-0.1,0.4-0.2,0.6-0.2C55.6,12.8,55.9,12.9,56.1,13.1z"/>
<path class="st5" d="M66.7,16.6c0.2,0.2,0.3,0.5,0.3,0.7v8.8c0,0.3-0.1,0.5-0.3,0.7c-0.2,0.2-0.4,0.3-0.7,0.3
	c-0.3,0-0.5-0.1-0.7-0.3c-0.2-0.2-0.3-0.4-0.3-0.7v-0.5c-0.4,0.5-0.9,0.9-1.4,1.2c-0.6,0.3-1.3,0.5-2,0.5c-0.9,0-1.8-0.2-2.5-0.7
	c-0.8-0.5-1.4-1.2-1.8-2c-0.9-1.8-0.9-3.9,0-5.7c0.4-0.8,1-1.5,1.8-2c0.7-0.5,1.6-0.7,2.5-0.7c0.7,0,1.4,0.1,2,0.5
	c0.6,0.3,1.1,0.7,1.5,1.2v-0.5c0-0.3,0.1-0.5,0.3-0.7c0.2-0.2,0.5-0.3,0.7-0.3C66.2,16.3,66.5,16.4,66.7,16.6z M63.5,25
	c0.5-0.3,0.9-0.8,1.2-1.3c0.3-0.6,0.4-1.3,0.4-1.9c0-0.7-0.1-1.3-0.4-1.9c-0.3-0.5-0.7-1-1.2-1.4C63,18.1,62.4,18,61.8,18
	c-0.6,0-1.2,0.2-1.7,0.5c-0.5,0.3-0.9,0.8-1.1,1.4c-0.6,1.2-0.6,2.6,0,3.9c0.2,0.5,0.6,1,1.1,1.3C61.2,25.7,62.5,25.7,63.5,25z"/>
<path class="st5" d="M71.2,26.8c-0.2,0.2-0.4,0.3-0.7,0.3c-0.3,0-0.5-0.1-0.7-0.3c-0.2-0.2-0.3-0.4-0.3-0.7V13c0-0.6,0.4-1,1-1
	c0.3,0,0.5,0.1,0.7,0.3c0.2,0.2,0.3,0.4,0.3,0.7v13.2C71.5,26.4,71.4,26.6,71.2,26.8z"/>
<path class="st5" d="M75.9,26.8c-0.2,0.2-0.4,0.3-0.7,0.3c-0.3,0-0.5-0.1-0.7-0.3c-0.2-0.2-0.3-0.4-0.3-0.7V13c0-0.6,0.4-1,1-1
	c0.3,0,0.5,0.1,0.7,0.3c0.2,0.2,0.3,0.4,0.3,0.7v13.2C76.2,26.4,76.1,26.6,75.9,26.8z"/>
<path class="st5" d="M88.8,13.1c0.2,0.2,0.3,0.4,0.3,0.7c0,0.3-0.1,0.5-0.3,0.7c-0.2,0.2-0.4,0.3-0.7,0.2h-3.6v11.4
	c0,0.3-0.1,0.5-0.3,0.7c-0.4,0.4-1.1,0.4-1.5,0c-0.2-0.2-0.3-0.4-0.3-0.7V14.7h-3.6c-0.3,0-0.5-0.1-0.7-0.2
	c-0.2-0.2-0.3-0.4-0.3-0.7c0-0.2,0.1-0.5,0.3-0.7c0.2-0.2,0.4-0.3,0.7-0.2h9.3C88.4,12.9,88.7,13,88.8,13.1z"/>
<path class="st5" d="M98.4,16.6c0.2,0.2,0.3,0.5,0.3,0.7v8.8c0,0.3-0.1,0.5-0.3,0.7c-0.2,0.2-0.4,0.3-0.7,0.3
	c-0.3,0-0.5-0.1-0.7-0.3c-0.2-0.2-0.3-0.4-0.3-0.7v-0.5c-0.4,0.5-0.9,0.9-1.4,1.2c-0.6,0.3-1.3,0.5-2,0.5c-0.9,0-1.8-0.2-2.5-0.7
	c-0.8-0.5-1.4-1.2-1.8-2c-0.9-1.8-0.9-3.9,0-5.7c0.4-0.8,1-1.5,1.8-2c0.7-0.5,1.6-0.7,2.5-0.7c0.7,0,1.4,0.1,2,0.5
	c0.6,0.3,1.1,0.7,1.5,1.1v-0.5c0-0.3,0.1-0.5,0.3-0.7c0.2-0.2,0.4-0.3,0.7-0.3C97.9,16.3,98.2,16.4,98.4,16.6z M95.2,25
	c0.5-0.3,0.9-0.8,1.2-1.3c0.3-0.6,0.4-1.3,0.4-1.9c0-0.7-0.1-1.3-0.4-1.9c-0.3-0.5-0.7-1-1.2-1.4c-0.5-0.3-1.1-0.5-1.7-0.5
	c-0.6,0-1.2,0.2-1.7,0.5c-0.5,0.3-0.9,0.8-1.2,1.3c-0.6,1.2-0.6,2.6,0,3.9c0.3,0.5,0.7,1,1.2,1.3C92.9,25.7,94.2,25.7,95.2,25z"/>
<path class="st5" d="M110.9,16.6c0.2,0.2,0.3,0.5,0.3,0.7v8.9c0,1-0.2,1.9-0.7,2.8c-0.5,0.7-1.1,1.3-1.9,1.6
	c-0.9,0.4-1.8,0.5-2.7,0.5c-0.6,0-1.3-0.1-1.9-0.3c-0.5-0.1-1-0.3-1.4-0.6c-0.4-0.2-0.6-0.5-0.6-0.8c0-0.1,0-0.2,0.1-0.3
	c0.1-0.3,0.4-0.5,0.8-0.5c0.2,0,0.4,0,0.6,0.1c0.8,0.4,1.7,0.6,2.5,0.6c0.9,0.1,1.8-0.2,2.5-0.8c0.6-0.6,0.9-1.3,0.9-2.1v-1.1
	c-0.3,0.6-0.8,1.1-1.4,1.4c-0.6,0.4-1.4,0.6-2.1,0.6c-0.9,0-1.8-0.2-2.6-0.7c-0.8-0.5-1.4-1.2-1.8-2c-0.9-1.8-0.9-3.9,0-5.7
	c0.4-0.8,1-1.5,1.8-2c0.8-0.5,1.6-0.7,2.5-0.7c1.4,0,2.7,0.7,3.6,1.8v-0.6c0-0.3,0.1-0.5,0.3-0.7c0.2-0.2,0.4-0.3,0.7-0.3
	C110.4,16.3,110.7,16.4,110.9,16.6z M107.7,25c0.5-0.3,0.9-0.8,1.2-1.3c0.3-0.6,0.4-1.3,0.4-1.9c0-0.7-0.1-1.3-0.4-1.9
	c-0.3-0.5-0.7-1-1.2-1.3c-0.5-0.3-1.1-0.5-1.8-0.5c-0.6,0-1.2,0.2-1.8,0.5c-0.5,0.3-0.9,0.8-1.2,1.4c-0.6,1.2-0.6,2.6,0,3.8
	c0.3,0.6,0.7,1,1.2,1.4c0.5,0.3,1.1,0.5,1.8,0.5C106.5,25.5,107.1,25.3,107.7,25z"/>
<path class="st5" d="M123.4,16.6c0.2,0.2,0.3,0.5,0.3,0.7v8.9c0,1-0.2,1.9-0.7,2.8c-0.5,0.7-1.1,1.3-1.9,1.6
	c-0.9,0.4-1.8,0.5-2.7,0.5c-0.6,0-1.3-0.1-1.9-0.3c-0.5-0.1-1-0.3-1.4-0.6c-0.4-0.2-0.6-0.5-0.6-0.8c0-0.1,0-0.2,0.1-0.3
	c0.1-0.3,0.4-0.5,0.8-0.5c0.2,0,0.4,0,0.6,0.1c0.8,0.4,1.7,0.6,2.5,0.6c0.9,0.1,1.8-0.2,2.5-0.8c0.6-0.6,0.9-1.3,0.9-2.1v-1.1
	c-0.3,0.6-0.8,1.1-1.4,1.4c-0.6,0.4-1.4,0.6-2.1,0.6c-0.9,0-1.8-0.2-2.6-0.7c-0.8-0.5-1.4-1.2-1.8-2c-0.9-1.8-0.9-3.9,0-5.7
	c0.4-0.8,1-1.5,1.8-2c0.8-0.5,1.6-0.7,2.5-0.7c1.4,0,2.7,0.7,3.6,1.8v-0.6c0-0.3,0.1-0.5,0.3-0.7c0.2-0.2,0.4-0.3,0.7-0.3
	C123,16.3,123.2,16.4,123.4,16.6z M120.2,25c0.5-0.3,0.9-0.8,1.2-1.3c0.3-0.6,0.4-1.3,0.4-1.9c0-0.7-0.1-1.3-0.4-1.9
	c-0.3-0.5-0.7-1-1.2-1.3c-0.5-0.3-1.1-0.5-1.8-0.5c-0.6,0-1.2,0.2-1.8,0.5c-0.5,0.3-0.9,0.8-1.2,1.4c-0.6,1.2-0.6,2.6,0,3.8
	c0.3,0.6,0.7,1,1.2,1.4c0.5,0.3,1.1,0.5,1.8,0.5C119,25.5,119.7,25.3,120.2,25z"/>
<path class="st5" d="M135.4,22c-0.2,0.2-0.4,0.3-0.7,0.2h-7.2c0.1,0.9,0.5,1.8,1.1,2.4c0.7,0.6,1.5,0.9,2.4,0.9
	c0.5,0,1.1-0.1,1.6-0.3c0.4-0.2,0.8-0.4,1.1-0.7c0.2-0.1,0.4-0.2,0.6-0.2c0.2,0,0.4,0.1,0.6,0.2c0.1,0.2,0.2,0.4,0.2,0.6
	c0,0.3-0.2,0.6-0.4,0.8c-0.4,0.4-1,0.8-1.6,1c-0.6,0.3-1.3,0.4-2,0.4c-1,0-2-0.2-2.9-0.7c-0.8-0.4-1.5-1.1-1.9-1.9
	c-0.5-0.9-0.7-1.8-0.7-2.8c0-1,0.2-2.1,0.7-3c0.4-0.8,1.1-1.5,1.9-2c1.5-0.9,3.4-0.9,4.9,0c0.8,0.4,1.4,1.1,1.9,1.8
	c0.5,0.8,0.7,1.7,0.7,2.6C135.7,21.6,135.6,21.8,135.4,22z M128.7,18.6c-0.6,0.5-1,1.2-1.1,2h6v-0.2c-0.1-0.7-0.4-1.4-1-1.8
	c-0.6-0.5-1.3-0.7-2-0.7C129.9,18,129.3,18.2,128.7,18.6L128.7,18.6z"/>
<path class="st5" d="M147,12.3c0.2,0.2,0.3,0.4,0.3,0.7v13.1c0,0.3-0.1,0.5-0.3,0.7c-0.2,0.2-0.4,0.3-0.7,0.3
	c-0.3,0-0.5-0.1-0.7-0.3c-0.2-0.2-0.3-0.4-0.3-0.7v-0.6c-0.4,0.5-0.9,0.9-1.4,1.2c-0.6,0.3-1.3,0.5-2,0.5c-0.9,0-1.8-0.2-2.5-0.7
	c-0.8-0.5-1.4-1.2-1.8-2c-0.4-0.9-0.7-1.9-0.6-2.9c0-1,0.2-2,0.6-2.9c0.4-0.8,1-1.5,1.8-2c1.3-0.8,3-0.9,4.4-0.3
	c0.6,0.3,1.1,0.7,1.5,1.2V13c0-0.3,0.1-0.5,0.3-0.7c0.2-0.2,0.4-0.3,0.7-0.3C146.6,12,146.8,12.1,147,12.3z M143.9,25
	c0.5-0.3,0.9-0.8,1.1-1.3c0.6-1.2,0.6-2.6,0-3.9c-0.3-0.5-0.7-1-1.2-1.4c-1-0.6-2.4-0.6-3.4,0c-0.5,0.3-0.9,0.8-1.2,1.4
	c-0.6,1.2-0.6,2.6,0,3.9c0.3,0.5,0.7,1,1.2,1.3C141.5,25.7,142.8,25.7,143.9,25z"/>
</svg>
